# xmcd
#
# Track frame offsets: 
#        150
#        15665
#        31835
#        50270
#        65567
#        79440
#        91612
#        106462
#        122517
#        142292
#        157520
#
# Disc length: 2313 seconds
#
# Revision: 2
# Processed by: cddbd v1.4PL0 Copyright (c) Steve Scherf et al.
# Submitted via: ExactAudioCopy v0.90b4
#
DISCID=8309070b
DTITLE=Neal McCoy - Be Good At It
DYEAR=1997
DGENRE=Country
TTITLE0=If You Can't Be Good, Be Good At It
TTITLE1=I Know You
TTITLE2=You'll Always Be In My Life
TTITLE3=Same Boots
TTITLE4=Back
TTITLE5=Love Happens Like That
TTITLE6=Party On
TTITLE7=Broken Record
TTITLE8=21 to 17
TTITLE9=Basic Goodbye
TTITLE10=The Shake
EXTD=
EXTT0=
EXTT1=
EXTT2=
EXTT3=
EXTT4=
EXTT5=
EXTT6=
EXTT7=
EXTT8=
EXTT9=
EXTT10=
PLAYORDER=
